<mxfile host="app.diagrams.net" modified="2023-12-21T03:12:52.971Z" agent="Mozilla/5.0 (Windows NT 10.0; Win64; x64) AppleWebKit/537.36 (KHTML, like Gecko) Chrome/120.0.0.0 Safari/537.36" etag="Yuy-sypT5AE5wkpjNolc" version="22.1.11" type="github">
  <diagram name="第 1 页" id="Qq8-8DqnNIYR00-2U_hK">
    <mxGraphModel dx="1659" dy="662" grid="0" gridSize="10" guides="1" tooltips="1" connect="1" arrows="1" fold="1" page="0" pageScale="1" pageWidth="827" pageHeight="1169" math="0" shadow="0">
      <root>
        <mxCell id="0" />
        <mxCell id="1" parent="0" />
        <mxCell id="uqG4xWj7W7N9ahbhEscH-15" style="edgeStyle=orthogonalEdgeStyle;rounded=0;orthogonalLoop=1;jettySize=auto;html=1;exitX=0;exitY=0.75;exitDx=0;exitDy=0;" edge="1" parent="1" source="uqG4xWj7W7N9ahbhEscH-1">
          <mxGeometry relative="1" as="geometry">
            <mxPoint x="-97.35227966308594" y="297" as="targetPoint" />
          </mxGeometry>
        </mxCell>
        <mxCell id="uqG4xWj7W7N9ahbhEscH-1" value="SERVER" style="rounded=0;whiteSpace=wrap;html=1;fontStyle=1" vertex="1" parent="1">
          <mxGeometry x="127" y="252" width="120" height="60" as="geometry" />
        </mxCell>
        <mxCell id="uqG4xWj7W7N9ahbhEscH-12" style="edgeStyle=orthogonalEdgeStyle;rounded=0;orthogonalLoop=1;jettySize=auto;html=1;exitX=0.5;exitY=0.5;exitDx=0;exitDy=0;exitPerimeter=0;entryX=0;entryY=0.5;entryDx=0;entryDy=0;" edge="1" parent="1" source="uqG4xWj7W7N9ahbhEscH-2" target="uqG4xWj7W7N9ahbhEscH-1">
          <mxGeometry relative="1" as="geometry" />
        </mxCell>
        <mxCell id="uqG4xWj7W7N9ahbhEscH-2" value="Actor" style="shape=umlActor;verticalLabelPosition=bottom;verticalAlign=top;html=1;outlineConnect=0;" vertex="1" parent="1">
          <mxGeometry x="-141" y="252" width="30" height="60" as="geometry" />
        </mxCell>
        <mxCell id="uqG4xWj7W7N9ahbhEscH-5" style="edgeStyle=orthogonalEdgeStyle;rounded=0;orthogonalLoop=1;jettySize=auto;html=1;exitX=0;exitY=0.5;exitDx=0;exitDy=0;curved=1;dashed=1;endArrow=none;endFill=0;" edge="1" parent="1" source="uqG4xWj7W7N9ahbhEscH-3" target="uqG4xWj7W7N9ahbhEscH-1">
          <mxGeometry relative="1" as="geometry" />
        </mxCell>
        <mxCell id="uqG4xWj7W7N9ahbhEscH-13" style="edgeStyle=orthogonalEdgeStyle;rounded=0;orthogonalLoop=1;jettySize=auto;html=1;exitX=0.5;exitY=1;exitDx=0;exitDy=0;entryX=0.5;entryY=0;entryDx=0;entryDy=0;" edge="1" parent="1" source="uqG4xWj7W7N9ahbhEscH-3" target="uqG4xWj7W7N9ahbhEscH-8">
          <mxGeometry relative="1" as="geometry" />
        </mxCell>
        <mxCell id="uqG4xWj7W7N9ahbhEscH-3" value="CLIENT" style="rounded=0;whiteSpace=wrap;html=1;fontStyle=1" vertex="1" parent="1">
          <mxGeometry x="582" y="252" width="120" height="60" as="geometry" />
        </mxCell>
        <mxCell id="uqG4xWj7W7N9ahbhEscH-6" value="10100" style="text;html=1;strokeColor=none;fillColor=none;align=center;verticalAlign=middle;whiteSpace=wrap;rounded=0;" vertex="1" parent="1">
          <mxGeometry x="255" y="240" width="60" height="30" as="geometry" />
        </mxCell>
        <mxCell id="uqG4xWj7W7N9ahbhEscH-14" style="edgeStyle=orthogonalEdgeStyle;rounded=0;orthogonalLoop=1;jettySize=auto;html=1;exitX=0.75;exitY=0;exitDx=0;exitDy=0;entryX=0.75;entryY=1;entryDx=0;entryDy=0;" edge="1" parent="1" source="uqG4xWj7W7N9ahbhEscH-8" target="uqG4xWj7W7N9ahbhEscH-3">
          <mxGeometry relative="1" as="geometry" />
        </mxCell>
        <mxCell id="uqG4xWj7W7N9ahbhEscH-8" value="8080" style="rounded=0;whiteSpace=wrap;html=1;" vertex="1" parent="1">
          <mxGeometry x="582" y="372" width="120" height="60" as="geometry" />
        </mxCell>
        <mxCell id="uqG4xWj7W7N9ahbhEscH-9" value="8081" style="text;html=1;strokeColor=none;fillColor=none;align=center;verticalAlign=middle;whiteSpace=wrap;rounded=0;" vertex="1" parent="1">
          <mxGeometry x="73" y="246" width="60" height="30" as="geometry" />
        </mxCell>
      </root>
    </mxGraphModel>
  </diagram>
</mxfile>
